<mxfile host="app.diagrams.net" modified="2024-02-03T22:25:16.396Z" agent="Mozilla/5.0 (Windows NT 10.0; Win64; x64) AppleWebKit/537.36 (KHTML, like Gecko) Chrome/121.0.0.0 Safari/537.36" etag="QAe2YJjVZwo360di3KoQ" version="23.1.1" type="device">
  <diagram name="Страница — 1" id="etWK0q4O15aKOSwd1nym">
    <mxGraphModel dx="1434" dy="738" grid="1" gridSize="10" guides="1" tooltips="1" connect="1" arrows="1" fold="1" page="1" pageScale="1" pageWidth="827" pageHeight="1169" math="0" shadow="0">
      <root>
        <mxCell id="0" />
        <mxCell id="1" parent="0" />
        <mxCell id="HZn7UDjfJczNrPQFMHfc-10" style="edgeStyle=orthogonalEdgeStyle;rounded=0;orthogonalLoop=1;jettySize=auto;html=1;entryX=0;entryY=0.5;entryDx=0;entryDy=0;" edge="1" parent="1" source="HZn7UDjfJczNrPQFMHfc-1" target="HZn7UDjfJczNrPQFMHfc-4">
          <mxGeometry relative="1" as="geometry">
            <Array as="points">
              <mxPoint x="180" y="270" />
            </Array>
          </mxGeometry>
        </mxCell>
        <mxCell id="HZn7UDjfJczNrPQFMHfc-1" value="Cats" style="rounded=1;whiteSpace=wrap;html=1;" vertex="1" parent="1">
          <mxGeometry x="150" y="340" width="60" height="30" as="geometry" />
        </mxCell>
        <mxCell id="HZn7UDjfJczNrPQFMHfc-11" value="" style="edgeStyle=orthogonalEdgeStyle;rounded=0;orthogonalLoop=1;jettySize=auto;html=1;" edge="1" parent="1" source="HZn7UDjfJczNrPQFMHfc-2" target="HZn7UDjfJczNrPQFMHfc-4">
          <mxGeometry relative="1" as="geometry" />
        </mxCell>
        <mxCell id="HZn7UDjfJczNrPQFMHfc-2" value="Dogs" style="rounded=1;whiteSpace=wrap;html=1;" vertex="1" parent="1">
          <mxGeometry x="230" y="340" width="60" height="30" as="geometry" />
        </mxCell>
        <mxCell id="HZn7UDjfJczNrPQFMHfc-12" style="edgeStyle=orthogonalEdgeStyle;rounded=0;orthogonalLoop=1;jettySize=auto;html=1;entryX=1;entryY=0.5;entryDx=0;entryDy=0;" edge="1" parent="1" source="HZn7UDjfJczNrPQFMHfc-3" target="HZn7UDjfJczNrPQFMHfc-4">
          <mxGeometry relative="1" as="geometry">
            <Array as="points">
              <mxPoint x="340" y="270" />
            </Array>
          </mxGeometry>
        </mxCell>
        <mxCell id="HZn7UDjfJczNrPQFMHfc-3" value="Hamsters" style="rounded=1;whiteSpace=wrap;html=1;" vertex="1" parent="1">
          <mxGeometry x="310" y="340" width="60" height="30" as="geometry" />
        </mxCell>
        <mxCell id="HZn7UDjfJczNrPQFMHfc-17" style="edgeStyle=orthogonalEdgeStyle;rounded=0;orthogonalLoop=1;jettySize=auto;html=1;entryX=0;entryY=0.5;entryDx=0;entryDy=0;" edge="1" parent="1" source="HZn7UDjfJczNrPQFMHfc-4" target="HZn7UDjfJczNrPQFMHfc-9">
          <mxGeometry relative="1" as="geometry">
            <Array as="points">
              <mxPoint x="260" y="180" />
            </Array>
          </mxGeometry>
        </mxCell>
        <mxCell id="HZn7UDjfJczNrPQFMHfc-4" value="Pets" style="rounded=1;whiteSpace=wrap;html=1;" vertex="1" parent="1">
          <mxGeometry x="217.5" y="250" width="85" height="40" as="geometry" />
        </mxCell>
        <mxCell id="HZn7UDjfJczNrPQFMHfc-13" style="edgeStyle=orthogonalEdgeStyle;rounded=0;orthogonalLoop=1;jettySize=auto;html=1;entryX=0;entryY=0.5;entryDx=0;entryDy=0;" edge="1" parent="1" source="HZn7UDjfJczNrPQFMHfc-5" target="HZn7UDjfJczNrPQFMHfc-8">
          <mxGeometry relative="1" as="geometry">
            <Array as="points">
              <mxPoint x="450" y="270" />
            </Array>
          </mxGeometry>
        </mxCell>
        <mxCell id="HZn7UDjfJczNrPQFMHfc-5" value="Horses" style="rounded=1;whiteSpace=wrap;html=1;" vertex="1" parent="1">
          <mxGeometry x="420" y="340" width="60" height="30" as="geometry" />
        </mxCell>
        <mxCell id="HZn7UDjfJczNrPQFMHfc-14" value="" style="edgeStyle=orthogonalEdgeStyle;rounded=0;orthogonalLoop=1;jettySize=auto;html=1;" edge="1" parent="1" source="HZn7UDjfJczNrPQFMHfc-6" target="HZn7UDjfJczNrPQFMHfc-8">
          <mxGeometry relative="1" as="geometry" />
        </mxCell>
        <mxCell id="HZn7UDjfJczNrPQFMHfc-6" value="Camels" style="rounded=1;whiteSpace=wrap;html=1;" vertex="1" parent="1">
          <mxGeometry x="500" y="340" width="60" height="30" as="geometry" />
        </mxCell>
        <mxCell id="HZn7UDjfJczNrPQFMHfc-15" style="edgeStyle=orthogonalEdgeStyle;rounded=0;orthogonalLoop=1;jettySize=auto;html=1;entryX=1;entryY=0.5;entryDx=0;entryDy=0;" edge="1" parent="1" source="HZn7UDjfJczNrPQFMHfc-7" target="HZn7UDjfJczNrPQFMHfc-8">
          <mxGeometry relative="1" as="geometry">
            <Array as="points">
              <mxPoint x="610" y="270" />
            </Array>
          </mxGeometry>
        </mxCell>
        <mxCell id="HZn7UDjfJczNrPQFMHfc-7" value="Donkeys" style="rounded=1;whiteSpace=wrap;html=1;" vertex="1" parent="1">
          <mxGeometry x="580" y="340" width="60" height="30" as="geometry" />
        </mxCell>
        <mxCell id="HZn7UDjfJczNrPQFMHfc-16" style="edgeStyle=orthogonalEdgeStyle;rounded=0;orthogonalLoop=1;jettySize=auto;html=1;entryX=1;entryY=0.5;entryDx=0;entryDy=0;" edge="1" parent="1" source="HZn7UDjfJczNrPQFMHfc-8" target="HZn7UDjfJczNrPQFMHfc-9">
          <mxGeometry relative="1" as="geometry">
            <Array as="points">
              <mxPoint x="530" y="180" />
            </Array>
          </mxGeometry>
        </mxCell>
        <mxCell id="HZn7UDjfJczNrPQFMHfc-8" value="PackAnimals" style="rounded=1;whiteSpace=wrap;html=1;" vertex="1" parent="1">
          <mxGeometry x="487.5" y="250" width="85" height="40" as="geometry" />
        </mxCell>
        <mxCell id="HZn7UDjfJczNrPQFMHfc-9" value="Animals&lt;br&gt;(abstract)" style="rounded=1;whiteSpace=wrap;html=1;" vertex="1" parent="1">
          <mxGeometry x="330" y="160" width="140" height="40" as="geometry" />
        </mxCell>
      </root>
    </mxGraphModel>
  </diagram>
</mxfile>
